<?xml version="1.0" standalone="no"?>
<!DOCTYPE svg PUBLIC "-//W3C//DTD SVG 20010904//EN"
 "http://www.w3.org/TR/2001/REC-SVG-20010904/DTD/svg10.dtd">
<svg version="1.0" xmlns="http://www.w3.org/2000/svg"
 width="512.000000pt" height="512.000000pt" viewBox="0 0 512.000000 512.000000"
 preserveAspectRatio="xMidYMid meet">

<g transform="translate(0.000000,512.000000) scale(0.100000,-0.100000)"
fill="#000000" stroke="none">
<path d="M650 5105 c-337 -68 -587 -329 -639 -665 -9 -56 -11 -550 -9 -1925 3
-2021 -1 -1859 58 -2017 66 -177 261 -372 438 -438 157 -59 2 -55 2062 -55
1729 0 1890 1 1945 17 106 29 172 58 247 107 225 147 361 389 362 642 1 87 -1
99 -26 136 -41 63 -90 88 -169 88 -54 0 -72 -5 -106 -27 -61 -40 -82 -82 -93
-185 -19 -165 -97 -280 -238 -346 l-67 -32 -537 -3 -538 -3 0 731 0 730 253 0
c224 0 257 3 292 19 85 39 107 85 130 274 21 164 13 209 -45 267 -55 55 -86
60 -374 60 l-257 0 3 373 c3 354 4 374 24 418 31 66 78 114 142 146 55 27 64
28 252 33 183 5 197 6 233 29 21 13 50 42 65 64 26 39 27 47 30 190 4 166 -6
212 -56 260 -46 44 -93 57 -256 69 -185 14 -277 5 -421 -43 -102 -34 -226
-105 -315 -180 -126 -107 -246 -298 -292 -464 -20 -75 -22 -105 -26 -487 l-3
-407 -258 -3 -258 -3 -40 -27 c-22 -15 -51 -44 -64 -65 -23 -36 -24 -46 -24
-213 0 -167 1 -177 24 -213 13 -21 42 -50 64 -65 l40 -27 259 -3 258 -3 0
-730 0 -729 -1007 2 -1008 3 -67 32 c-93 44 -151 100 -196 191 l-37 76 0 1855
0 1856 32 67 c44 93 100 151 191 196 l76 37 1856 0 1856 0 76 -37 c91 -45 147
-103 191 -196 l32 -67 5 -1341 5 -1340 27 -41 c41 -62 90 -88 168 -88 78 0
127 26 168 88 l27 41 0 1355 c0 1235 -1 1361 -17 1416 -29 106 -58 172 -107
247 -114 174 -261 279 -481 346 -50 16 -208 17 -1925 19 -1515 1 -1882 -1
-1935 -12z"/>
</g>
</svg>
