
<svg version="1.0" xmlns="http://www.w3.org/2000/svg"
 width="512.000000pt" height="512.000000pt" viewBox="0 0 512.000000 512.000000"
 preserveAspectRatio="xMidYMid meet">

<g transform="translate(0.000000,512.000000) scale(0.100000,-0.100000)"
fill="#000000" stroke="none">
<path d="M650 5105 c-337 -68 -587 -329 -639 -665 -9 -56 -11 -550 -9 -1925 3
-2021 -1 -1859 58 -2017 66 -177 261 -372 438 -438 157 -59 2 -55 2062 -55
1729 0 1890 1 1945 17 106 29 172 58 247 107 225 147 361 389 362 642 1 87 -1
99 -26 136 -41 63 -90 88 -169 88 -54 0 -72 -5 -106 -27 -61 -40 -82 -82 -93
-185 -19 -165 -97 -280 -238 -346 l-67 -32 -1855 0 -1855 0 -67 32 c-93 44
-151 100 -196 191 l-37 76 0 1855 0 1856 32 67 c44 93 100 151 191 196 l76 37
1856 0 1856 0 76 -37 c91 -45 147 -103 191 -196 l32 -67 5 -1336 5 -1335 27
-41 c41 -62 90 -88 168 -88 78 0 127 26 168 88 l27 41 0 1350 c0 1231 -1 1356
-17 1411 -29 106 -58 172 -107 247 -114 174 -261 279 -481 346 -50 16 -208 17
-1925 19 -1515 1 -1882 -1 -1935 -12z"/>
<path d="M1152 4265 c-74 -21 -131 -56 -189 -118 -90 -95 -127 -217 -106 -342
15 -86 46 -149 106 -212 90 -95 203 -140 327 -130 100 8 172 40 244 107 138
130 174 321 90 487 -38 75 -136 165 -211 193 -75 28 -190 35 -261 15z"/>
<path d="M3240 3179 c-196 -28 -391 -142 -485 -281 l-32 -49 -5 85 c-5 98 -30
147 -95 187 -37 23 -45 24 -243 24 -198 0 -206 -1 -243 -24 -21 -13 -50 -42
-65 -64 l-27 -41 0 -995 0 -996 24 -38 c13 -21 42 -50 64 -65 l41 -27 206 0
206 0 41 27 c22 15 51 44 64 65 l24 38 6 585 c6 633 7 644 64 764 72 152 213
226 406 213 136 -9 227 -68 279 -182 51 -111 53 -137 59 -780 l6 -600 24 -38
c13 -21 42 -50 64 -65 l41 -27 211 0 211 0 41 27 c22 15 51 44 64 65 l24 38 0
685 c0 500 -4 707 -13 765 -70 446 -256 649 -647 705 -81 11 -236 11 -315 -1z"/>
<path d="M1032 3139 c-46 -14 -109 -80 -122 -128 -7 -27 -10 -344 -8 -1013 l3
-973 24 -38 c13 -21 42 -50 64 -65 l41 -27 216 0 216 0 41 27 c22 15 51 44 64
65 l24 38 0 995 0 995 -24 38 c-13 21 -42 50 -64 65 -40 27 -42 27 -241 29
-111 1 -216 -3 -234 -8z"/>
</g>
</svg>
